<svg width="61" height="20" viewBox="0 0 61 20" fill="none" xmlns="http://www.w3.org/2000/svg">
<path d="M12.056 11.832V15L0.946 15.022V14.252L6.16 8.554C6.776 7.87933 7.216 7.29267 7.48 6.794C7.75867 6.29533 7.898 5.81133 7.898 5.342C7.898 4.82867 7.75867 4.42533 7.48 4.132C7.20133 3.83867 6.83467 3.692 6.38 3.692C5.94 3.692 5.58067 3.846 5.302 4.154C5.02333 4.44733 4.884 4.87267 4.884 5.43C4.884 5.70867 4.91333 6.03133 4.972 6.398H1.166C1.06333 5.98733 1.012 5.57667 1.012 5.166C1.012 4.33 1.232 3.53067 1.672 2.768C2.12667 2.00533 2.76467 1.38933 3.586 0.919999C4.422 0.450666 5.37533 0.215999 6.446 0.215999C7.44333 0.215999 8.34533 0.421332 9.152 0.831999C9.97333 1.24267 10.6113 1.81467 11.066 2.548C11.5353 3.26667 11.77 4.08067 11.77 4.99C11.77 5.98733 11.4987 6.926 10.956 7.806C10.428 8.67133 9.64333 9.654 8.602 10.754L7.568 11.832H12.056ZM20.2979 15.264C18.9926 15.264 17.8853 14.934 16.9759 14.274C16.0813 13.5993 15.4066 12.6827 14.9519 11.524C14.4973 10.3653 14.2699 9.06733 14.2699 7.63C14.2699 6.19267 14.4899 4.91667 14.9299 3.802C15.3846 2.68733 16.0666 1.81467 16.9759 1.184C17.8853 0.538666 18.9926 0.215999 20.2979 0.215999C21.6033 0.215999 22.7106 0.538666 23.6199 1.184C24.5293 1.81467 25.2039 2.68733 25.6439 3.802C26.0986 4.91667 26.3259 6.19267 26.3259 7.63C26.3259 9.06733 26.0986 10.3653 25.6439 11.524C25.1893 12.6827 24.5073 13.5993 23.5979 14.274C22.7033 14.934 21.6033 15.264 20.2979 15.264ZM22.4539 7.652C22.4539 6.288 22.2779 5.29067 21.9259 4.66C21.5739 4.01467 21.0313 3.692 20.2979 3.692C19.5646 3.692 19.0219 4.01467 18.6699 4.66C18.3179 5.29067 18.1419 6.288 18.1419 7.652C18.1419 10.4093 18.8606 11.788 20.2979 11.788C21.7353 11.788 22.4539 10.4093 22.4539 7.652ZM34.5635 15.264C33.2582 15.264 32.1509 14.934 31.2415 14.274C30.3469 13.5993 29.6722 12.6827 29.2175 11.524C28.7629 10.3653 28.5355 9.06733 28.5355 7.63C28.5355 6.19267 28.7555 4.91667 29.1955 3.802C29.6502 2.68733 30.3322 1.81467 31.2415 1.184C32.1509 0.538666 33.2582 0.215999 34.5635 0.215999C35.8689 0.215999 36.9762 0.538666 37.8855 1.184C38.7949 1.81467 39.4695 2.68733 39.9095 3.802C40.3642 4.91667 40.5915 6.19267 40.5915 7.63C40.5915 9.06733 40.3642 10.3653 39.9095 11.524C39.4549 12.6827 38.7729 13.5993 37.8635 14.274C36.9689 14.934 35.8689 15.264 34.5635 15.264ZM36.7195 7.652C36.7195 6.288 36.5435 5.29067 36.1915 4.66C35.8395 4.01467 35.2969 3.692 34.5635 3.692C33.8302 3.692 33.2875 4.01467 32.9355 4.66C32.5835 5.29067 32.4075 6.288 32.4075 7.652C32.4075 10.4093 33.1262 11.788 34.5635 11.788C36.0009 11.788 36.7195 10.4093 36.7195 7.652ZM60.4292 4V13.658C60.4292 15.5353 59.8939 16.9287 58.8232 17.838C57.7525 18.762 56.3225 19.224 54.5332 19.224C52.3919 19.224 50.5439 18.564 48.9892 17.244L50.9032 14.582C51.4605 15.0073 51.9959 15.3227 52.5092 15.528C53.0372 15.7333 53.5799 15.836 54.1372 15.836C54.8559 15.836 55.4499 15.6747 55.9192 15.352C56.4032 15.0293 56.6452 14.5453 56.6452 13.9V13.504C55.9559 14.1787 54.9952 14.516 53.7632 14.516C52.7659 14.516 51.8712 14.296 51.0792 13.856C50.2872 13.416 49.6639 12.7853 49.2092 11.964C48.7692 11.1427 48.5492 10.1893 48.5492 9.104C48.5492 8.004 48.7765 7.05067 49.2312 6.244C49.6859 5.43733 50.3092 4.82133 51.1012 4.396C51.8932 3.956 52.7805 3.736 53.7632 3.736C55.2152 3.736 56.2859 4.198 56.9752 5.122V4H60.4292ZM54.5772 11.392C55.1639 11.392 55.6625 11.1867 56.0732 10.776C56.4985 10.3507 56.7112 9.77133 56.7112 9.038C56.7112 8.30467 56.4985 7.762 56.0732 7.41C55.6625 7.04333 55.1639 6.86 54.5772 6.86C53.9759 6.86 53.4625 7.05067 53.0372 7.432C52.6265 7.81333 52.4212 8.356 52.4212 9.06C52.4212 9.77867 52.6339 10.3507 53.0592 10.776C53.4845 11.1867 53.9905 11.392 54.5772 11.392Z" fill="white"/>
</svg>
