<svg width="61" height="20" viewBox="0 0 61 20" fill="none" xmlns="http://www.w3.org/2000/svg">
<path d="M12.914 12.844H11.22V15H7.436V12.844H0.264V11.854L4.598 0.479999H8.492L4.95 9.676H7.436V6.112H11.22V9.676H12.914V12.844ZM20.2335 15.264C18.9281 15.264 17.8208 14.934 16.9115 14.274C16.0168 13.5993 15.3421 12.6827 14.8875 11.524C14.4328 10.3653 14.2055 9.06733 14.2055 7.63C14.2055 6.19267 14.4255 4.91667 14.8655 3.802C15.3201 2.68733 16.0021 1.81467 16.9115 1.184C17.8208 0.538666 18.9281 0.215999 20.2335 0.215999C21.5388 0.215999 22.6461 0.538666 23.5555 1.184C24.4648 1.81467 25.1395 2.68733 25.5795 3.802C26.0341 4.91667 26.2615 6.19267 26.2615 7.63C26.2615 9.06733 26.0341 10.3653 25.5795 11.524C25.1248 12.6827 24.4428 13.5993 23.5335 14.274C22.6388 14.934 21.5388 15.264 20.2335 15.264ZM22.3895 7.652C22.3895 6.288 22.2135 5.29067 21.8615 4.66C21.5095 4.01467 20.9668 3.692 20.2335 3.692C19.5001 3.692 18.9575 4.01467 18.6055 4.66C18.2535 5.29067 18.0775 6.288 18.0775 7.652C18.0775 10.4093 18.7961 11.788 20.2335 11.788C21.6708 11.788 22.3895 10.4093 22.3895 7.652ZM34.4991 15.264C33.1938 15.264 32.0864 14.934 31.1771 14.274C30.2824 13.5993 29.6078 12.6827 29.1531 11.524C28.6984 10.3653 28.4711 9.06733 28.4711 7.63C28.4711 6.19267 28.6911 4.91667 29.1311 3.802C29.5858 2.68733 30.2678 1.81467 31.1771 1.184C32.0864 0.538666 33.1938 0.215999 34.4991 0.215999C35.8044 0.215999 36.9118 0.538666 37.8211 1.184C38.7304 1.81467 39.4051 2.68733 39.8451 3.802C40.2998 4.91667 40.5271 6.19267 40.5271 7.63C40.5271 9.06733 40.2998 10.3653 39.8451 11.524C39.3904 12.6827 38.7084 13.5993 37.7991 14.274C36.9044 14.934 35.8044 15.264 34.4991 15.264ZM36.6551 7.652C36.6551 6.288 36.4791 5.29067 36.1271 4.66C35.7751 4.01467 35.2324 3.692 34.4991 3.692C33.7658 3.692 33.2231 4.01467 32.8711 4.66C32.5191 5.29067 32.3431 6.288 32.3431 7.652C32.3431 10.4093 33.0618 11.788 34.4991 11.788C35.9364 11.788 36.6551 10.4093 36.6551 7.652ZM60.3647 4V13.658C60.3647 15.5353 59.8294 16.9287 58.7587 17.838C57.6881 18.762 56.2581 19.224 54.4687 19.224C52.3274 19.224 50.4794 18.564 48.9247 17.244L50.8387 14.582C51.3961 15.0073 51.9314 15.3227 52.4447 15.528C52.9727 15.7333 53.5154 15.836 54.0727 15.836C54.7914 15.836 55.3854 15.6747 55.8547 15.352C56.3387 15.0293 56.5807 14.5453 56.5807 13.9V13.504C55.8914 14.1787 54.9307 14.516 53.6987 14.516C52.7014 14.516 51.8067 14.296 51.0147 13.856C50.2227 13.416 49.5994 12.7853 49.1447 11.964C48.7047 11.1427 48.4847 10.1893 48.4847 9.104C48.4847 8.004 48.7121 7.05067 49.1667 6.244C49.6214 5.43733 50.2447 4.82133 51.0367 4.396C51.8287 3.956 52.7161 3.736 53.6987 3.736C55.1507 3.736 56.2214 4.198 56.9107 5.122V4H60.3647ZM54.5127 11.392C55.0994 11.392 55.5981 11.1867 56.0087 10.776C56.4341 10.3507 56.6467 9.77133 56.6467 9.038C56.6467 8.30467 56.4341 7.762 56.0087 7.41C55.5981 7.04333 55.0994 6.86 54.5127 6.86C53.9114 6.86 53.3981 7.05067 52.9727 7.432C52.5621 7.81333 52.3567 8.356 52.3567 9.06C52.3567 9.77867 52.5694 10.3507 52.9947 10.776C53.4201 11.1867 53.9261 11.392 54.5127 11.392Z" fill="white"/>
</svg>
