<svg width="284" height="368" viewBox="0 0 284 368" fill="none" xmlns="http://www.w3.org/2000/svg">
<path d="M70.6131 212.394C71.8167 235.377 75.0264 263.908 93.0809 281.343C105.92 294.023 123.172 300.76 142.029 300.76C160.886 300.76 177.335 294.023 190.174 281.343C207.827 263.908 211.438 235.377 212.642 212.394L213.043 204.865H283.255L282.854 213.187C280.446 263.908 268.811 296.797 243.134 323.346C217.055 349.499 183.353 367.331 142.029 367.331C90.2724 367.331 58.1756 341.574 40.1211 323.346C14.4436 296.797 2.80848 263.908 0.401211 213.187L0 204.865H70.2119L70.6131 212.394Z" fill="white"/>
<path d="M70.6131 154.54C71.8167 131.558 75.0264 103.027 93.0809 85.5916C105.518 73.3077 123.172 66.175 142.029 66.175C160.886 66.175 177.335 72.9114 190.174 85.5916C207.827 103.027 211.438 131.558 212.642 154.54L213.043 162.069H283.255L282.854 154.144C280.446 103.423 268.811 70.5339 243.134 43.9846C217.055 17.4353 183.353 0 142.029 0C90.2724 0 58.1756 25.7567 40.1211 43.9846C14.4436 70.1376 2.80848 103.027 0.401211 154.144L0 162.466H70.2119L70.6131 154.54Z" fill="white"/>
</svg>
