<svg width="1500" height="900" viewBox="0 0 1500 900" fill="none" xmlns="http://www.w3.org/2000/svg">
<g opacity="0.1">
<mask id="mask0_461_26" style="mask-type:alpha" maskUnits="userSpaceOnUse" x="144" y="148" width="1212" height="616">
<ellipse cx="750" cy="456" rx="606" ry="308" fill="white"/>
</mask>
<g mask="url(#mask0_461_26)">
<g opacity="0.5">
<rect x="300" width="2" height="900" fill="white"/>
<rect x="250" width="2" height="900" fill="white"/>
<rect x="200" width="2" height="900" fill="white"/>
<rect x="150" width="2" height="900" fill="white"/>
<rect x="1500" y="447" width="2.00005" height="1500" transform="rotate(90 1500 447)" fill="white"/>
<rect x="1500" y="497" width="2.00005" height="1500" transform="rotate(90 1500 497)" fill="white"/>
<rect x="1500" y="547" width="2.00005" height="1500" transform="rotate(90 1500 547)" fill="white"/>
<rect x="1500" y="597" width="2.00005" height="1500" transform="rotate(90 1500 597)" fill="white"/>
<rect x="1500" y="647" width="2.00005" height="1500" transform="rotate(90 1500 647)" fill="white"/>
<rect x="1500" y="697" width="2.00005" height="1500" transform="rotate(90 1500 697)" fill="white"/>
<rect x="1500" y="747" width="2.00005" height="1500" transform="rotate(90 1500 747)" fill="white"/>
<rect x="1500" y="397" width="2.00005" height="1500" transform="rotate(90 1500 397)" fill="white"/>
<rect x="1500" y="347" width="2.00005" height="1500" transform="rotate(90 1500 347)" fill="white"/>
<rect x="1500" y="297" width="2.00005" height="1500" transform="rotate(90 1500 297)" fill="white"/>
<rect x="1500" y="247" width="2.00005" height="1500" transform="rotate(90 1500 247)" fill="white"/>
<rect x="1500" y="197" width="2.00005" height="1500" transform="rotate(90 1500 197)" fill="white"/>
<rect x="1500" y="147" width="2.00005" height="1500" transform="rotate(90 1500 147)" fill="white"/>
<rect x="350" width="2" height="900" fill="white"/>
<rect x="400" width="2" height="900" fill="white"/>
<rect x="450" width="2" height="900" fill="white"/>
<rect x="500" width="2" height="900" fill="white"/>
<rect x="550" width="2" height="900" fill="white"/>
<rect x="600" width="2" height="900" fill="white"/>
<rect x="650" width="2" height="900" fill="white"/>
<rect x="700" width="2" height="900" fill="white"/>
<rect x="750" width="2" height="900" fill="white"/>
<rect x="800" width="2" height="900" fill="white"/>
<rect x="850" width="2" height="900" fill="white"/>
<rect x="900" width="2" height="900" fill="white"/>
<rect x="950" width="2" height="900" fill="white"/>
<rect x="1000" width="2" height="900" fill="white"/>
<rect x="1050" width="2" height="900" fill="white"/>
<rect x="1100" width="2" height="900" fill="white"/>
<rect x="1150" width="2" height="900" fill="white"/>
<rect x="1200" width="2" height="900" fill="white"/>
<rect x="1250" width="2" height="900" fill="white"/>
<rect x="1300" width="2" height="900" fill="white"/>
<rect x="1350" width="2" height="900" fill="white"/>
</g>
</g>
</g>
</svg>
