<svg width="108" height="40" viewBox="0 0 108 40" fill="none" xmlns="http://www.w3.org/2000/svg">
<path d="M7.79513 23.0965C7.92578 25.5911 8.27416 28.6879 10.2338 30.5804C11.6274 31.9567 13.5 32.6879 15.5467 32.6879C17.5935 32.6879 19.379 31.9567 20.7726 30.5804C22.6887 28.6879 23.0806 25.5911 23.2113 23.0965L23.2548 22.2793H30.8758L30.8322 23.1825C30.5709 28.6879 29.308 32.2578 26.5209 35.1395C23.6903 37.9782 20.0322 39.9137 15.5467 39.9137C9.929 39.9137 6.44513 37.118 4.48545 35.1395C1.69836 32.2578 0.435454 28.6879 0.174164 23.1825L0.130615 22.2793H7.75158L7.79513 23.0965Z" fill="#FF5B59"/>
<path d="M7.79513 16.8172C7.92578 14.3225 8.27416 11.2258 10.2338 9.33329C11.5838 7.99996 13.5 7.22576 15.5467 7.22576C17.5935 7.22576 19.379 7.95695 20.7726 9.33329C22.6887 11.2258 23.0806 14.3225 23.2113 16.8172L23.2548 17.6344H30.8758L30.8322 16.7742C30.5709 11.2688 29.308 7.69888 26.5209 4.81716C23.6903 1.93544 20.0322 0.0429688 15.5467 0.0429688C9.929 0.0429688 6.44513 2.83867 4.48545 4.81716C1.69836 7.65587 0.435454 11.2258 0.174164 16.7742L0.130615 17.6774H7.75158L7.79513 16.8172Z" fill="#FF5B59"/>
<path d="M66.7596 10.4517H65.4532V25.8925H66.7596V10.4517Z" fill="#FF5B59"/>
<path d="M94.0209 16.9464C92.9758 15.398 91.1903 14.3228 89.1435 14.3228C85.9209 14.3228 83.308 16.9034 83.308 20.0862C83.308 23.269 85.9209 25.8496 89.1435 25.8496C91.1903 25.8496 92.9758 24.8174 94.0209 23.226V25.8496H95.3274V14.3228H94.0209V16.9464ZM89.1435 24.6883C86.5742 24.6883 84.4839 22.6238 84.4839 20.0862C84.4839 17.5486 86.5742 15.484 89.1435 15.484C91.7129 15.484 93.8032 17.5486 93.8032 20.0862C93.8032 22.6238 91.7129 24.6883 89.1435 24.6883Z" fill="#FF5B59"/>
<path d="M103.601 14.3228C103.514 14.3228 103.471 14.3228 103.384 14.3228C101.337 14.3228 100.248 15.312 99.8999 15.7421L99.116 16.6453V14.3228H97.8531V25.8926H99.116V19.183C99.1595 16.9464 100.597 15.441 102.643 15.441H102.687C103.732 15.441 104.647 15.8281 105.3 16.4733C105.997 17.2045 106.345 18.2797 106.301 19.5701V25.8496H107.695V18.7959C107.739 16.8174 106.693 14.4088 103.601 14.3228Z" fill="#FF5B59"/>
<path d="M43.5483 14.3657C40.3257 14.3657 37.7128 16.9464 37.7128 20.1292C37.7128 23.312 40.3257 25.8926 43.5483 25.8926C46.7709 25.8926 49.3838 23.312 49.3838 20.1292C49.3403 16.9464 46.7273 14.3657 43.5483 14.3657ZM43.5483 24.6883C40.979 24.6883 38.8886 22.6238 38.8886 20.0862C38.8886 17.5485 40.979 15.484 43.5483 15.484C46.1177 15.484 48.208 17.5485 48.208 20.0862C48.1644 22.6238 46.0741 24.6883 43.5483 24.6883Z" fill="#FF5B59"/>
<path d="M57.6581 15.527C59.2693 15.527 60.7935 16.3872 61.621 17.7206H62.971C62.0564 15.6991 59.9661 14.3657 57.6581 14.3657C54.4355 14.3657 51.8226 16.9464 51.8226 20.1292C51.8226 23.312 54.4355 25.8926 57.6581 25.8926C59.9226 25.8926 61.9258 24.6023 62.8839 22.6238H61.5339C60.6629 23.9141 59.2258 24.7313 57.6581 24.7313C55.0887 24.7313 52.9984 22.6668 52.9984 20.1292C52.9984 17.5915 55.0887 15.527 57.6581 15.527Z" fill="#FF5B59"/>
<path d="M79.3451 21.8496C79.1273 22.4088 78.7789 22.8819 78.387 23.312C78.2999 23.398 78.2128 23.484 78.1257 23.5271C78.0822 23.5701 78.0822 23.5701 78.0386 23.6131C77.9515 23.6991 77.8644 23.7421 77.7338 23.8281C77.6902 23.8281 77.6902 23.8711 77.6467 23.8711C77.5596 23.9572 77.429 24.0002 77.3419 24.0432C77.2983 24.0432 77.2983 24.0862 77.2548 24.0862C77.1677 24.1292 77.0806 24.1722 76.9499 24.2152C76.9064 24.2152 76.8628 24.2582 76.8193 24.2582C76.6886 24.3012 76.558 24.3443 76.4273 24.3873C76.3838 24.3873 76.3838 24.3873 76.3402 24.4303C76.2531 24.4733 76.166 24.4733 76.0789 24.5163C75.9483 24.5593 75.8177 24.5593 75.7306 24.6023C75.5128 24.6453 75.2515 24.6453 75.0338 24.6453C72.5515 24.6453 70.5048 22.7098 70.3741 20.2582H79.6935H80.8693C80.8693 20.2152 80.8693 20.1292 80.8693 20.0862C80.8693 16.9034 78.2564 14.3228 75.0338 14.3228C71.8112 14.3228 69.1983 16.9034 69.1983 20.0862C69.1983 23.269 71.8112 25.8496 75.0338 25.8496C76.166 25.8496 77.2548 25.5055 78.1693 24.9464C78.2564 24.9034 78.3435 24.8174 78.4306 24.7744C78.4741 24.7314 78.5177 24.6883 78.5612 24.6453C78.6048 24.6023 78.6483 24.6023 78.6919 24.5593C79.5628 23.8711 80.216 22.9249 80.5644 21.8496H79.3451ZM75.0338 15.5271C77.3419 15.5271 79.3015 17.2475 79.6064 19.441H70.4177C70.766 17.2045 72.7257 15.5271 75.0338 15.5271Z" fill="#FF5B59"/>
</svg>
