<svg width="1500" height="441" viewBox="0 0 1500 441" fill="none" xmlns="http://www.w3.org/2000/svg">
<path d="M1503 196.922C1492.13 202.619 1483.59 208.596 1473.49 214.413C1466.77 217.881 1460.79 221.779 1448.64 224.108C1441.26 225.357 1432.41 224.108 1427.67 222.409C1415.28 218.051 1408.26 212.714 1400.88 207.616C1392.65 201.829 1385.35 195.982 1375.64 190.325C1370.24 187.636 1365.2 184.268 1354.28 182.929C1343.3 182.259 1336.97 185.417 1332.15 187.526C1320.5 193.643 1313.36 200.31 1305.36 206.817C1298.37 213.332 1289.95 219.739 1280.12 226.007C1275.38 228.236 1270.76 231.324 1260.32 231.804C1249.99 231.284 1245.45 228.246 1241.29 226.007C1231.86 220.44 1225.99 214.413 1219.74 208.536C1210.23 199.44 1202.19 190.195 1189.65 181.329C1185.14 178.881 1181.69 175.782 1171.79 174.533C1161.65 174.303 1157.46 177.361 1153.54 179.33C1142.32 186.327 1136.41 193.843 1129.46 201.219C1121.7 209.885 1115.06 218.601 1106.17 227.206C1101.35 231.714 1096.96 236.432 1086.75 240.33C1084.03 241.239 1078.44 242.119 1074.71 241.029C1066.06 239.16 1063.34 235.862 1059.18 233.133C1049.44 224.488 1042.91 215.612 1036.27 206.747C1029.91 198.211 1023.89 189.655 1016.86 181.179C1012.16 175.962 1007.62 170.685 999.153 165.767C996.59 164.398 990.572 162.249 984.398 163.568C974.652 166.437 971.973 170.385 967.896 173.953C959.47 182.499 953.995 191.244 948.287 199.94C941.414 210.495 935.24 221.089 927.746 231.604C922.699 238.351 918.117 245.187 908.681 251.594C906.08 252.983 902.275 255.512 895.091 254.592C886.16 252.284 884.141 248.765 880.336 245.697C870.318 234.782 864.377 223.628 858.087 212.524C852.224 201.839 846.438 191.134 840.614 180.44C834.984 171.294 829.897 162.099 820.539 153.144C817.044 151.205 816.035 148.236 807.337 147.447C799.144 148.296 797.669 151.175 794.64 153.134C785.127 162.179 780.7 171.544 775.226 180.83C769.44 192.174 764.237 203.528 758.995 214.892C754.374 225.027 749.793 235.172 744.123 245.267C740.468 253.087 734.944 260.841 727.582 268.485C724.554 270.025 723.699 272.653 716.322 273.083C708.206 272.034 707.546 269.085 704.401 267.086C696.325 258.46 692.364 249.615 687.705 240.819C681.906 228.206 676.638 215.572 671.901 202.919C667.669 192.424 663.592 181.929 659.321 171.444C654.428 160.66 650.079 149.835 642.935 139.131C639.712 134.943 637.77 130.515 629.733 126.737C625.539 125.168 620.608 127.147 619.249 128.236C610.435 135.113 607.6 142.369 603.717 149.525C598.281 160.52 594.126 171.514 590.088 182.589C585.455 195.709 580.989 208.836 576.692 221.969C572.654 233.963 568.435 245.927 564.034 257.861C559.802 267.856 555.88 277.771 549.512 287.646C546.444 291.004 545.318 294.752 538.174 297.641C533.514 298.91 530.408 296.641 528.855 295.742C520.079 287.806 517.206 279.53 513.323 271.354C508.353 259.46 504.237 247.536 500.704 235.602C497.17 223.668 493.52 211.874 490.142 200.01C486.648 188.666 483.813 177.291 480.124 165.947C476.241 152.764 472.086 139.591 466.961 126.447C463.466 118.161 460.399 109.816 453.526 101.67C451.391 100.05 451.158 97.6717 444.595 96.8421C437.995 98.0615 437.878 100.65 435.51 102.529C427.744 112.854 424.599 123.349 420.677 133.803C416.444 146.687 412.6 159.58 409.416 172.494C406.271 184.048 403.242 195.612 400.602 207.176C397.211 220.503 393.924 233.856 390.74 247.236C387.439 259.47 384.333 271.714 380.799 283.938C377.227 294.802 374.004 305.687 368.956 316.511C366.355 321.429 364.219 326.386 358.395 331.124C356.453 332.723 350.901 332.403 349.891 330.854C342.125 324.407 340.65 317.611 337.427 310.934C332.768 298.94 329.312 286.846 326.205 274.782C322.556 261.159 319.527 247.526 316.537 233.903C313.819 222.179 311.489 210.455 308.965 198.731C306.441 187.007 304.112 175.342 301.588 163.648C298.676 149.486 295.336 135.323 292.036 121.16C288.774 108.286 285.512 95.4128 281.047 82.5593C277.708 74.4734 275.883 66.2675 267.962 58.3915C267.341 57.2521 261.982 55.9827 260.584 57.7418C253.789 62.4695 252.819 67.6469 250.256 72.6243C245.053 85.5578 241.675 98.5412 238.607 111.515C235.113 126.434 231.929 141.363 229.055 156.302C226.764 167.386 224.9 178.471 222.765 189.555C220.474 201.549 218.882 213.473 216.242 225.427C213.653 240.699 210.896 255.962 207.971 271.214C205.253 285.447 202.535 299.68 199.428 313.912C196.71 325.806 193.954 337.7 190.459 349.584C187.003 358.81 185.372 368.135 177.606 377.201C177.218 378.3 171.899 380.199 170.268 378.13C164.599 373.922 163.706 369.344 161.493 364.927C156.445 352.163 153.455 339.36 150.504 326.556C147.553 314.142 145.456 301.709 143.01 289.285C140.447 274.962 137.923 260.629 135.749 246.307C133.225 230.744 130.623 215.182 128.565 199.62C126.352 187.566 124.915 175.492 122.78 163.438C120.761 149.545 118.612 135.656 116.334 121.77C114.082 108.543 111.83 95.3129 109.578 82.0796C106.821 69.1561 104.763 56.2226 101.424 43.3191C98.5117 31.5951 95.716 19.851 89.7752 8.19687C87.4454 6.19788 88.3383 3.5792 82.7858 2C77.5827 2.71964 78.437 4.91853 76.4178 6.29783C70.5935 16.4227 68.1473 26.6575 65.5846 36.8724C62.75 47.7969 60.7311 58.7313 58.6343 69.6558C56.2269 81.8697 54.4017 94.0935 52.4214 106.307C49.9364 122.939 47.3349 139.571 45.277 156.202C43.1414 170.315 41.3942 184.438 39.4527 198.551C37.5889 214.723 35.1426 230.884 33.1623 247.046C31.2209 260.1 29.8617 273.153 27.9202 286.206C25.7458 303.198 23.1057 320.139 20.776 337.111C18.5239 351.234 16.3494 365.366 13.709 379.489C11.3016 393.052 8.46691 406.616 4.77814 420.159C2.83669 426.616 0.895103 433.092 -2.98781 439.479" stroke="url(#paint0_linear_461_300)" stroke-width="3"/>
<defs>
<linearGradient id="paint0_linear_461_300" x1="1503" y1="53" x2="4.50006" y2="53.0001" gradientUnits="userSpaceOnUse">
<stop stop-color="white" stop-opacity="0"/>
<stop offset="0.104167" stop-color="white"/>
<stop offset="0.947917" stop-color="white"/>
<stop offset="1" stop-color="white" stop-opacity="0"/>
</linearGradient>
</defs>
</svg>
